<svg width="335.8400146484375px" height="249.43999633789062px" xmlns="http://www.w3.org/2000/svg" viewBox="82.07999267578126 -49.71999816894531 335.8400146484375 249.43999633789062" style="background:#596886" preserveAspectRatio="xMidYMid"><defs><filter id="editing-hover" x="-100%" y="-100%" width="300%" height="300%"><feFlood flood-color="#052b4a" result="flood"></feFlood><feComposite operator="in" in2="SourceAlpha" in="flood" result="shadow"></feComposite><feOffset dx="-4" dy="-4" in="SourceGraphic" result="offset-1"></feOffset><feOffset dx="4" dy="4" in="shadow" result="offset-2"></feOffset><feMerge><feMergeNode in="offset-2"></feMergeNode><feMergeNode in="offset-1"></feMergeNode></feMerge></filter></defs><g filter="url(#editing-hover)"><g transform="translate(135.33119475841522, 124.30000495910645)"><path d="M14.79 0L-1.88 0L24.36-95.70L54.66-95.70L61.33-41.03L88.30-95.70L113.68-95.70L116.29-24.07L116.29-24.07Q116.87-9.86 123.83-5.51L123.83-5.51L123.83-5.51Q122.23-2.61 117.59 0.14L117.59 0.14L117.59 0.14Q112.95 2.90 106.79 2.90L106.79 2.90L106.79 2.90Q100.63 2.90 97.00 1.16L97.00 1.16L97.00 1.16Q93.38-0.58 91.35-3.48L91.35-3.48L91.35-3.48Q87.72-8.70 87.72-18.70L87.72-18.70L87.72-63.51L59.16 0L41.18 0L31.03-65.10L14.79 0ZM184.15-10.88L184.15-10.88L184.15-10.88Q184.15-21.02 188.21-41.32L188.21-41.32L166.75-41.32L158.77 0L128.47 0L146.88-95.70L177.48-95.70L169.07-52.92L190.53-52.92L198.50-95.70L229.10-95.70L229.10-95.70Q227.07-84.97 224.46-72.93L224.46-72.93L219.53-49.30L219.53-49.30Q214.02-21.75 214.02-9.71L214.02-9.71L214.02-9.71Q214.02-4.78 215.62-2.03L215.62-2.03L215.62-2.03Q208.37 2.90 199.88 2.90L199.88 2.90L199.88 2.90Q191.40 2.90 187.77-1.16L187.77-1.16L187.77-1.16Q184.15-5.22 184.15-10.88Z" fill="#ffd5af"></path></g></g><style>text {
  font-size: 64px;
  font-family: Arial Black;
  dominant-baseline: central;
  text-anchor: middle;
}</style></svg>